<?xml version="1.0" standalone="no"?>
<!DOCTYPE svg PUBLIC "-//W3C//DTD SVG 1.1//EN" "http://www.w3.org/Graphics/SVG/1.1/DTD/svg11.dtd" >
<!--
2013-9-30: Created.
-->
<svg>
<metadata>
Created by iconfont
</metadata>
<defs>

<font id="iconfont" horiz-adv-x="1024" >
  <font-face
    font-family="iconfont"
    font-weight="500"
    font-stretch="normal"
    units-per-em="1024"
    ascent="896"
    descent="-128"
  />
    <missing-glyph />
    
    <glyph glyph-name="x" unicode="x" horiz-adv-x="1001"
d="M281 543q-27 -1 -53 -1h-83q-18 0 -36.5 -6t-32.5 -18.5t-23 -32t-9 -45.5v-76h912v41q0 16 -0.5 30t-0.5 18q0 13 -5 29t-17 29.5t-31.5 22.5t-49.5 9h-133v-97h-438v97zM955 310v-52q0 -23 0.5 -52t0.5 -58t-10.5 -47.5t-26 -30t-33 -16t-31.5 -4.5q-14 -1 -29.5 -0.5
t-29.5 0.5h-32l-45 128h-439l-44 -128h-29h-34q-20 0 -45 1q-25 0 -41 9.5t-25.5 23t-13.5 29.5t-4 30v167h911zM163 247q-12 0 -21 -8.5t-9 -21.5t9 -21.5t21 -8.5q13 0 22 8.5t9 21.5t-9 21.5t-22 8.5zM316 123q-8 -26 -14 -48q-5 -19 -10.5 -37t-7.5 -25t-3 -15t1 -14.5
t9.5 -10.5t21.5 -4h37h67h81h80h64h36q23 0 34 12t2 38q-5 13 -9.5 30.5t-9.5 34.5q-5 19 -11 39h-368zM336 498v228q0 11 2.5 23t10 21.5t20.5 15.5t34 6h188q31 0 51.5 -14.5t20.5 -52.5v-227h-327z" />
    

    
    <glyph glyph-name="back" unicode="&#59031;" d="M363.840919 423.021263C336.938714 398.641139 337.301807 358.513862 364.730379 334.513862L673.951902 63.94503C682.818816 56.186481 696.296418 57.084988 704.05497 65.951902 711.813519 74.818816 710.915012 88.296418 702.048098 96.05497L392.826577 366.623802C384.59578 373.825747 384.502227 384.164713 392.492414 391.40582L702.325747 672.192277C711.056111 680.104171 711.719614 693.595384 703.807723 702.325748 695.895829 711.056111 682.404617 711.719614 673.674253 703.807722L363.840919 423.021263Z"  horiz-adv-x="1024" />

    
    <glyph glyph-name="less" unicode="&#59045;" d="M509.927514 508.840919C517.168621 516.831106 527.507586 516.737553 534.709532 508.506756L805.278364 199.285235C813.036915 190.418321 826.514517 189.519814 835.381431 197.278364 844.248346 205.036915 845.146852 218.514517 837.388303 227.381431L566.819471 536.602955C542.819471 564.031526 502.692194 564.39462 478.31207 537.492414L197.525612 227.659081C189.61372 218.928717 190.277222 205.437504 199.007586 197.525611 207.737949 189.613719 221.229163 190.277222 229.141056 199.007586L509.927514 508.840919Z"  horiz-adv-x="1024" />

    
    <glyph glyph-name="moreunfold" unicode="&#59046;" d="M478.31207 251.840919C502.692194 224.938714 542.819471 225.301807 566.819471 252.730379L837.388303 561.951902C845.146852 570.818816 844.248346 584.296418 835.381431 592.05497 826.514517 599.813519 813.036915 598.915012 805.278364 590.048098L534.709532 280.826577C527.507586 272.59578 517.168621 272.502227 509.927514 280.492414L229.141056 590.325747C221.229163 599.056111 207.737949 599.719614 199.007586 591.807723 190.277222 583.895829 189.61372 570.404617 197.525612 561.674253L478.31207 251.840919Z"  horiz-adv-x="1024" />

    
    <glyph glyph-name="more" unicode="&#59047;" d="M642.174253 391.40582C650.164439 384.164713 650.070886 373.825747 641.84009 366.623802L332.618569 96.05497C323.751654 88.296418 322.853148 74.818816 330.611697 65.951902 338.370249 57.084988 351.847851 56.186481 360.714765 63.94503L669.936288 334.513862C697.36486 358.513862 697.727953 398.641139 670.825747 423.021263L360.992414 703.807722C352.26205 711.719614 338.770837 711.056111 330.858944 702.325748 322.947053 693.595384 323.610556 680.104171 332.340919 672.192277L642.174253 391.40582Z"  horiz-adv-x="1024" />

    
    <glyph glyph-name="xiangmuguanli" unicode="&#58937;" d="M1005.001 593.892l-486.496 278.228-489.748-278.228 488.119-279.855 488.119 279.855zM28.762 453.963v-69.963l488.119-278.228 488.119 278.228v69.963l-488.119-279.855-488.119 279.855zM28.762 244.069v-69.963l488.119-278.228 488.119 278.228v69.963l-488.119-278.228-488.119 278.228z"  horiz-adv-x="1024" />

    
    <glyph glyph-name="tuichu" unicode="&#58893;" d="M785.92 655.36C855.04 583.68 896 488.96 896 384c0-212.48-171.52-384-384-384S128 171.52 128 384c0 104.96 43.52 199.68 110.08 271.36 20.48 20.48 20.48 51.2 0 71.68-20.48 20.48-51.2 20.48-71.68 0C79.36 637.44 25.6 517.12 25.6 384c0-268.8 217.6-486.4 486.4-486.4s486.4 217.6 486.4 486.4c0 133.12-53.76 253.44-140.8 343.04-20.48 20.48-51.2 20.48-71.68 0-20.48-20.48-20.48-53.76 0-71.68zM460.8 819.2v-460.8c0-28.16 23.04-51.2 51.2-51.2s51.2 23.04 51.2 51.2V819.2c0 28.16-23.04 51.2-51.2 51.2s-51.2-23.04-51.2-51.2"  horiz-adv-x="1024" />

    
    <glyph glyph-name="shangpinguanli1" unicode="&#58884;" d="M49.93219 622.445714l437.394286-248.685714a24.771048 24.771048 0 0 1 24.478476 0l437.296762 248.685714a24.868571 24.868571 0 0 1-1.170285 43.885715L510.634667 885.76a24.624762 24.624762 0 0 1-22.186667 0l-437.394286-219.428571a24.966095 24.966095 0 0 1-1.121524-43.885715z m24.478477 43.300572l-1.170286-43.885715 437.394286 219.428572h-22.186667l437.345524-219.428572-1.170286 43.885715-437.296762-248.685715h24.478476l-437.394285 248.685715zM474.794667 374.881524v-477.769143c0-19.017143 20.382476-31.110095 36.912762-21.74781l466.505142 264.289524a25.014857 25.014857 0 0 1 12.580572 21.699048v321.828571a24.81981 24.81981 0 1 1-49.590857 0v-321.828571l12.580571 21.699047-466.505143-264.289523 36.961524-21.650286v477.769143a24.722286 24.722286 0 0 1-49.444571 0zM512.390095-81.627429l-437.394285 264.289524 12.04419-21.308952v468.114286a24.81981 24.81981 0 0 1-49.590857 0v-468.114286c0-8.777143 4.534857-16.871619 11.995428-21.308953l437.394286-264.289523c11.702857-7.070476 26.916571-3.31581 33.938286 8.484571a25.014857 25.014857 0 0 1-8.387048 34.133333zM166.034286 432.615619l145.798095-87.82019a24.673524 24.673524 0 0 1 33.938286 8.582095 24.81981 24.81981 0 0 1-8.484572 34.133333l-145.798095 87.771429a24.722286 24.722286 0 0 1-33.938286-8.533334 24.966095 24.966095 0 0 1 8.484572-34.133333z"  horiz-adv-x="1024" />

    
    <glyph glyph-name="shangpin" unicode="&#58894;" d="M884.686 864.107H676.032c-17.315 0-31.353-14.036-31.353-31.353S658.715 801.4 676.032 801.4h194.972c30.686 0 55.562-24.876 55.562-55.562v-718.596c0-30.687-24.876-55.562-55.562-55.562H152.412c-30.686 0-55.562 24.876-55.562 55.562V745.839c0 30.686 24.876 55.562 55.562 55.562h168.225c17.316 0 31.354 14.038 31.354 31.354s-14.038 31.353-31.354 31.353H138.73c-57.761 0-104.587-46.826-104.587-104.587v-745.962c0-57.761 46.826-104.587 104.587-104.587h745.959c57.761 0 104.587 46.825 104.587 104.587V759.52c0 57.761-46.826 104.587-104.588 104.587zM830.993 624.88c0 29.163-23.641 52.803-52.803 52.803s-52.803-23.641-52.803-52.803c0-17.127 8.16-32.341 20.798-41.989-23.728-107.101-119.425-187.439-233.57-187.439-114.156 0-209.862 80.365-233.568 187.487 12.603 9.65 20.738 24.842 20.738 41.942 0 29.163-23.641 52.801-52.801 52.801s-52.801-23.641-52.801-52.801c0-19.181 10.227-35.969 25.525-45.216 1.219-1.094 2.694-2.077 4.491-2.923 23.028-138.407 143.585-244.281 288.42-244.281 144.841 0 265.401 105.874 288.423 244.281 1.927 0.906 3.461 1.945 4.7 3.089 15.143 9.281 25.252 25.983 25.252 45.051z"  horiz-adv-x="1024" />

    
    <glyph glyph-name="jine" unicode="&#58967;" d="M512 405.277c239.753 0 427.607 94.35 427.607 214.798S751.752 834.873 512 834.873 84.393 740.523 84.393 620.075 272.248 405.277 512 405.277z m0 374.913c219.769 0 372.926-84.409 372.926-160.116S731.769 459.958 512 459.958s-372.926 84.358-372.926 160.116S292.231 780.19 512 780.19zM512 302.525c-219.769 0-372.926 84.409-372.926 160.116H84.392c0-120.447 187.805-214.798 427.607-214.798s427.557 94.35 427.607 214.798h-54.682c0-75.709-153.157-160.116-372.926-160.116zM884.926 305.308c0-75.709-153.157-160.116-372.926-160.116s-372.926 84.409-372.926 160.116H84.392c0-120.447 187.805-214.798 427.607-214.798s427.607 94.35 427.607 214.798h-54.682zM884.926 147.926c0-75.709-153.157-160.116-372.926-160.116s-372.926 84.409-372.926 160.116H84.392c0-120.447 187.805-214.798 427.607-214.798s427.607 94.35 427.607 214.798h-54.682zM410.343 677.241v-54.631h74.316v-35.443h-74.316v-54.682h74.316v-35.045h54.682v35.045h74.316v54.682h-74.316V622.61h74.316v54.631h-35.94l46.131 46.131-38.625 38.674-73.472-73.472-72.975 72.975-38.625-38.674 45.634-45.634z"  horiz-adv-x="1024" />

    
    <glyph glyph-name="xiugaimima" unicode="&#58975;" d="M818.7 512.4H323v64c0 51.2 19.9 99.3 56.1 135.5S463.4 768 514.6 768s99.3-19.9 135.5-56.1 56.1-84.3 56.1-135.5V561h64v15.4C770.2 717.6 655.8 832 514.6 832S259 717.6 259 576.4v-64h-49.7c-43.9 0-79.5-35.6-79.5-79.5v-417.4c0-43.9 35.6-79.5 79.5-79.5h609.4c43.9 0 79.5 35.6 79.5 79.5V432.9c0 43.9-35.6 79.5-79.5 79.5z m15.5-496.9c0-8.6-7-15.5-15.5-15.5H209.3c-8.6 0-15.5 7-15.5 15.5V432.9c0 8.6 7 15.5 15.5 15.5h609.4c8.6 0 15.5-7 15.5-15.5v-417.4zM513.4 353.8c-55.8 0-101-45.2-101-101 0-44.6 29-82.5 69.1-95.9v-41.1c0-17.5 14.2-31.6 31.6-31.6 17.5 0 31.6 14.2 31.6 31.6v41c40.5 13.2 69.7 51.2 69.7 96.1 0 55.7-45.2 100.9-101 100.9z m0-138c-20.4 0-37 16.6-37 37s16.6 37 37 37 37-16.6 37-37-16.6-37-37-37z"  horiz-adv-x="1024" />

    
    <glyph glyph-name="dashboard1" unicode="&#59131;" d="M1141.90848 345.69728c37.42208 8.07424 40.02816 0.88064 5.66784-16.24064l-428.36992-213.2224c-38.58944-19.19488-81.21856-2.19648-95.54944 38.54336-14.16192 40.44288 8.9088 80.73216 50.5088 89.70752l467.74272 101.21216zM191.27808 154.75712a35.072 35.072 0 0 0-34.85184 34.5088c0 19.0464 14.7712 34.49856 34.85184 34.49856h68.32128c19.26144 0 34.85184-16.00512 34.85184-34.49856 0-19.0464-14.7712-34.5088-34.85184-34.5088H191.27808zM243.31776 418.02752a35.05152 35.05152 0 0 0-12.90752 47.26784 34.16064 34.16064 0 0 0 46.55104 12.92288c0.29184-0.16384 0.56832-0.3328 0.86016-0.50688l59.20768-34.15552c16.62976-9.59488 22.08256-31.2576 12.9024-47.27296a34.1504 34.1504 0 0 0-47.40096-12.42112l-59.2128 34.16576zM419.968 619.93984a35.072 35.072 0 0 0 12.49792 47.4112 34.16064 34.16064 0 0 0 46.78144-12.05248c0.16896-0.2816 0.32768-0.56832 0.49152-0.85504l34.23232-59.20768a35.072 35.072 0 0 0-12.48768-47.40608 34.17088 34.17088 0 0 0-46.79168 12.04736c-0.15872 0.28672-0.32768 0.56832-0.49152 0.85504l-34.23232 59.20768zM673.99168 706.47808c0 19.2512 16.02048 34.84672 34.5088 34.84672 19.05152 0 34.49856-14.76608 34.49856-34.84672V638.1568a35.04128 35.04128 0 0 0-34.49856-34.84672 34.16576 34.16576 0 0 0-34.5088 33.80736c-0.01024 0.34816 0 0.69632 0 1.04448V706.47808zM937.26208 654.44352a35.05664 35.05664 0 0 0 47.26784 12.90752c16.55808-9.5232 22.5024-30.01856 12.42112-47.4112l-34.16064-59.20768a35.05664 35.05664 0 0 0-47.26784-12.90752 34.1504 34.1504 0 0 0-12.40576 47.40608l34.14528 59.2128zM1139.17952 477.78304a35.06176 35.06176 0 0 0 47.4112-12.48768c9.51808-16.5632 4.48-37.26336-12.90752-47.26784l-59.20256-34.23232a35.072 35.072 0 0 0-47.42144 12.48768 34.17088 34.17088 0 0 0 12.05248 46.78656l0.86016 0.49152 59.20768 34.22208zM1225.70752 223.76448000000005c19.26144 0 34.85184-16.00512 34.85184-34.49856 0-19.0464-14.76096-34.5088-34.85184-34.5088h-68.31104a35.06176 35.06176 0 0 0-34.85184 34.5088c0 19.0464 14.7712 34.49856 34.85184 34.49856h68.31104zM708.50048 895.03232c-390.2208 0-706.56-316.3392-706.56-706.56 0-113.39776 26.76224-220.52864 74.24-315.49952h1264.65024c47.47776 94.97088 74.22976 202.10176 74.22976 315.49952 0 390.2208-316.32896 706.56-706.56 706.56z m582.8608-945.26464H125.63968c-30.18752 73.62048-46.8992 154.19904-46.8992 238.69952 0 347.80672 281.94816 629.76 629.76 629.76s629.76-281.95328 629.76-629.76c0-84.49536-16.71168-165.07904-46.8992-238.69952z"  horiz-adv-x="1417" />

    
    <glyph glyph-name="shanchucopy" unicode="&#58951;" d="M655-11H369c-67.3 0-130.6 26.2-178.2 73.8C143.2 110.39999999999998 117 173.70000000000005 117 241V527c0 67.3 26.2 130.6 73.8 178.2S301.7 779 369 779h175.3c16.6 0 30-13.4 30-30s-13.4-30-30-30H369c-105.9 0-192-86.1-192-192v-286c0-105.9 86.1-192 192-192h286c105.9 0 192 86.1 192 192V407.4c0 16.6 13.4 30 30 30s30-13.4 30-30V241c0-67.3-26.2-130.6-73.8-178.2C785.6 15.200000000000045 722.3-11 655-11zM531.4 403.4c-11.7 11.7-11.7 30.7 0 42.4l324.4 324.4c11.7 11.7 30.7 11.7 42.4 0s11.7-30.7 0-42.4L573.8 403.4c-11.7-11.7-30.7-11.7-42.4 0z"  horiz-adv-x="1024" />

    
    <glyph glyph-name="dashboard" unicode="&#58881;" d="M375.968 55.678c-1.333 0-2.397 0.053-3.143 0.107h-99.45c-21.042 0-37.395 6.332-48.618 18.818-15.349 17.087-14.854 39.077-14.449 44.67l-6.597 286.994h-55.277c-21.172 0-35.706 7.331-43.201 21.778-5.963 11.492-5.963 25.135-5.963 37.171 0 6.185 0 13.877 54.405 74.785 32.887 36.816 75.634 81.472 117.283 122.514 34.127 33.623 84.429 81.506 130.315 118.652 61.975 50.172 85.423 55.973 97.675 55.973 7.086 0 28.652 0 97.93-50.753 38.564-28.253 85.559-67.591 132.317-110.763 46.177-42.629 88.63-85.745 119.554-121.397 49.369-56.924 55.078-78.066 55.078-89.015 0-46.986-31.177-57.783-32.499-58.22l-2.202-0.723H808.45v-285.762c0-25.366-11.479-45.073-32.317-55.493-14.786-7.393-29.197-7.607-30.787-7.607h-97.179c-25.959 0-46.487 12.035-57.805 33.895-8.015 15.481-8.762 30.553-8.821 32.222l-0.011 0.51V321.083c0 7.933-2.974 13.055-9.645 16.617-4.846 2.587-9.898 3.347-11.163 3.502H473.78c-14.307 0-24.893-3.658-31.452-10.876-9.94-10.929-8.826-27.778-8.811-27.942l0.063-0.685v-174.194c0-27.462-7.879-47.669-23.428-60.068-12.832-10.226-26.929-11.756-34.192-11.756h0.003z m-0.979 28.943c0.165-0.011 0.498-0.023 0.979-0.023 10.722 0 28.702 5.574 28.702 42.905V300.504c-0.31 5.074-0.911 30.383 16.268 49.275 12.274 13.501 30.054 20.347 52.858 20.347l88.611-0.034c16.621-1.134 48.058-12.836 48.058-49.008v-196.679c0.087-1.291 0.907-11.167 5.963-20.501 6.398-11.827 16.787-17.571 31.748-17.571h97.174s9.599 0.183 18.556 4.91c10.514 5.55 15.627 15.122 15.627 29.267V435.191h83.886c3.489 2.329 11.492 9.871 11.492 30.031 0 0.596-0.544 15.34-48.004 70.066-30.244 34.875-71.907 77.168-117.323 119.097-45.987 42.454-92.08 81.05-129.791 108.677-57.198 41.909-76.337 45.165-80.842 45.165-4.17 0-22.029-3.406-76.627-47.236-34.421-27.633-77.497-66.604-124.574-112.699C206.12 558.574 136.667 479.193 128.197 463c0.015-8.435 0.219-16.825 2.717-21.637 0.873-1.683 3.197-6.172 17.529-6.172h83.541l7.287-317.087-0.097-0.756c-0.073-1.027-0.903-14.651 7.229-23.549 5.511-6.029 14.588-9.086 26.975-9.086l101.613-0.089z m0 0zM624.464 659.605zM761.646 517.321c-19.469 22.167-121.311 110.963-147.166 130.395-17.225 12.946-0.643 36.515 19.964 23.778 30.731-18.992 131.329-105.306 147.165-130.395 10.102-16.002-4.673-41.189-19.963-23.778z"  horiz-adv-x="1024" />

    
    <glyph glyph-name="yibiaopan" unicode="&#58933;" d="M986.3168-112.6912A576.9728 576.9728 0 0 1 1164.8 305.408C1164.8 624.4864 906.9568 883.2 588.8 883.2S12.8 624.4864 12.8 305.408c0-160.8704 65.9456-311.296 180.1728-419.712a38.4 38.4 0 0 1 52.864 55.7056A500.224 500.224 0 0 0 89.6 305.408C89.6 582.144 313.1392 806.4 588.8 806.4s499.2-224.256 499.2-500.992c0-138.9056-56.576-268.6464-154.7776-362.624a38.4 38.4 0 1 1 53.0944-55.4752zM697.6 524.032l-253.824-265.8816a92.16 92.16 0 0 1 3.1232-130.304 92.544 92.544 0 0 1 151.0144 36.608L724.48 507.2384a16.2048 16.2048 0 0 1-6.4512 19.3792 16.3584 16.3584 0 0 1-20.4288-2.56z"  horiz-adv-x="1177" />

    
    <glyph glyph-name="bianji" unicode="&#58883;" d="M1003.996479 340.476874l-99.972484 100.02262 50.036379 50.036379a42.766564 42.766564 0 0 0 60.013572 0l39.958911-40.059185a42.315334 42.315334 0 0 0 0-59.963436l-50.036378-50.036378z m-290.441624-290.441624l-99.972483 99.972484 271.740652 269.68505 100.02262-99.972484-271.790789-269.68505z m-180.2914-81.973425l60.765622 162.492888 99.170298-99.170297-159.93592-63.322591z m0 0M429.73127-117.621713H150.169299c-78.31345 0-139.780985 58.308926-139.780985 136.672513V745.781567A138.377159 138.377159 0 0 0 150.169299 885.612688h615.026307c78.31345 0 136.471966-61.517672 136.471967-139.831121v-167.7071c0-16.745642-7.871454-28.026388-24.71737-28.026389-16.695505 0.050137-24.617096 11.280747-24.617096 28.026389V745.781567c0 44.822167-42.415607 90.496656-87.137501 90.496656H150.169299c-44.77203 0-90.44652-45.67449-90.446519-90.496656v-726.730767c0-44.822167 45.67449-87.187637 90.446519-87.187638h279.561971c16.745642 0 27.976252-7.821318 27.976251-24.717369 0-16.795778-11.23061-24.767506-27.976251-24.767506zM429.73127-128H150.169299C64.586035-128 0.010027-64.727545 0.010027 19.0508V745.781567A148.554899 148.554899 0 0 0 150.169299 895.990975h615.026307c83.728208 0 146.850253-64.576007 146.850253-150.209408v-167.7071c0-23.6645-13.436623-38.404675-35.095656-38.404676-21.55876 0-34.995383 14.740176-34.995383 38.404676V745.781567c0 39.658092-38.705495 80.11837-76.759214 80.118369H150.169299c-38.855905 0-80.068233-41.212328-80.068232-80.118369v-726.730767c0-38.103855 40.460278-76.80935 80.068232-76.809351h279.561971c23.6645 0 38.354539-13.486759 38.354538-35.095656 0-21.608897-14.690039-35.145793-38.354538-35.145793zM150.169299 875.234402A128.049009 128.049009 0 0 1 20.766601 745.781567v-726.730767c0-71.996232 55.651683-126.193952 129.402698-126.193953h279.561971c17.597965 0 17.597965 9.977194 17.597964 14.238809 0 4.311752 0 14.389219-17.597964 14.389219H150.169299c-51.841298 0-100.824807 47.379136-100.824806 97.515788V745.781567C49.344493 796.720405 99.280598 846.65651 150.169299 846.65651h615.026307c49.184055 0 97.515788-49.936105 97.515788-100.874943v-167.7071c0-17.648101 9.977194-17.648101 14.238809-17.648102 4.311752 0 14.339082 0 14.339083 17.648102V745.781567c0 73.801151-54.197721 129.452835-126.09368 129.452835H150.169299zM653.340736 609.309601H262.024169c-16.795778 0-26.371879 7.971728-26.371878 24.617096 0 16.795778 9.525964 24.717369 26.321742 24.717369h391.366703c16.795778 0 26.321742-7.921591 26.321743-24.717369 0.050137-16.645368-9.475827-24.617096-26.321743-24.617096zM603.204085 441.602501H262.024169c-16.795778 0-26.371879 7.921591-26.371878 24.717369 0 16.645368 9.525964 24.617096 26.321742 24.617096h341.230052c16.795778 0 26.321742-7.971728 26.321742-24.617096 0.050137-16.795778-9.475827-24.717369-26.321742-24.717369zM603.204085 431.174077H262.024169c-22.962587 0-36.700029 13.085666-36.700029 35.095656 0 21.909717 13.737443 34.995383 36.700029 34.995383h341.230052c22.962587 0 36.700029-13.135803 36.700029-34.995383 0.050137-10.679107-3.058336-19.202338-9.27528-25.419282-6.417491-6.367355-15.692772-9.676374-27.474885-9.676374zM262.024169 480.558679c-13.286213 0-15.943455-5.414758-15.943455-14.238809s2.607106-14.339082 15.943455-14.339083h341.230052c4.161342 0 9.776647 0.701913 12.784847 3.559703 2.105739 2.105739 3.158609 5.715578 3.108472 10.679107 0 8.924324-2.607106 14.339082-15.893319 14.339082H262.024169zM452.794129 235.440589H262.024169c-22.962587 0-36.700029 13.085666-36.700029 35.095656 0 21.909717 13.737443 34.995383 36.700029 34.995383h190.820097c22.962587 0 36.700029-13.135803 36.700029-34.995383 0.050137-10.679107-3.058336-19.202338-9.27528-25.419283-6.417491-6.367355-15.692772-9.676374-27.474886-9.676373zM653.340736 598.931314H262.024169c-22.962587 0-36.700029 13.135803-36.700029 34.995383 0 22.00999 13.737443 35.095656 36.700029 35.095656h391.366704c22.962587 0 36.700029-13.085666 36.700029-35.095656 0.050137-10.679107-3.058336-19.102064-9.27528-25.319009-6.417491-6.417491-15.692772-9.676374-27.474886-9.676374zM262.024169 648.215642c-13.286213 0-15.943455-5.364622-15.943455-14.238809 0-8.824051 2.657243-14.238809 15.943455-14.238809h391.366704c4.161342 0 9.776647 0.60164 12.784846 3.559703 2.105739 2.155876 3.158609 5.715578 3.108473 10.679106 0 8.874187-2.607106 14.238809-15.893319 14.238809H262.024169z"  horiz-adv-x="1066" />

    
    <glyph glyph-name="xiangmu" unicode="&#58966;" d="M842.447568 380.402162a21.587027 21.587027 0 0 1-16.605406-1.66054l-41.79027-20.756757-272.051892-124.540541-285.059459 130.62919c-4.704865 2.214054-16.605405 8.025946-27.675676 14.114594h-1.660541a21.863784 21.863784 0 1 1-20.203243-38.745946 251.848649 251.848649 0 0 1 46.218378-22.970811l287.827027-131.736216L802.594595 318.131892l25.738378 12.730811 19.372973 9.686486a21.863784 21.863784 0 0 1-3.874595 40.12973zM784.051892 207.152432l-272.051892-124.54054-284.229189 130.352432a273.712432 273.712432 0 0 0-27.675676 14.668108 21.587027 21.587027 0 0 1-10.793513 2.767568 21.863784 21.863784 0 0 1-10.793514-40.683243 292.255135 292.255135 0 0 1 45.941622-22.694054l287.55027-132.28973L802.594595 167.299459l25.738378 12.730811 19.372973 9.686487a21.863784 21.863784 0 0 1-20.756757 38.469189zM827.225946 577.176216L553.513514 720.536216a77.215135 77.215135 0 0 1-39.852973 12.730811 94.927568 94.927568 0 0 1-43.174055-12.177297L193.72973 575.792432a58.672432 58.672432 0 0 1-25.461622-52.03027 55.351351 55.351351 0 0 1 27.675676-46.771892l273.712432-122.326486a91.883243 91.883243 0 0 1 39.022703-10.793514 99.909189 99.909189 0 0 1 40.12973 10.516757l274.542702 122.88a52.583784 52.583784 0 0 1 27.675676 47.325405 55.351351 55.351351 0 0 1-23.801081 52.583784z m-16.882162-57.842162v-1.66054h-1.383784l-276.756757-123.433514a52.307027 52.307027 0 0 0-19.926486-6.365405 53.137297 53.137297 0 0 0-21.310271 6.918919l-272.605405 121.772972c-4.151351 1.937297-4.428108 7.749189-4.704865 9.40973A20.756757 20.756757 0 0 0 215.87027 536.216216l273.712433 143.913514a53.690811 53.690811 0 0 0 22.417297 6.918919 37.085405 37.085405 0 0 0 19.096216-6.918919l274.542703-144.190271a23.524324 23.524324 0 0 0 4.704865-16.605405z"  horiz-adv-x="1024" />

    
    <glyph glyph-name="meiyoudingdan" unicode="&#58939;" d="M884.004571 326.192762a21.430857 21.430857 0 0 1 42.812953 0 21.430857 21.430857 0 0 1-42.812953 0zM831.707429 651.190857a29.817905 29.817905 0 0 1 44.690285-25.795047 29.817905 29.817905 0 0 1 0 51.590095 29.988571 29.988571 0 0 1-29.817904 0 29.988571 29.988571 0 0 1-14.872381-25.795048zM662.723048 645.802667a20.553143 20.553143 0 0 1 30.890666-17.798096 20.553143 20.553143 0 0 1 0 35.596191 20.48 20.48 0 0 1-20.601904 0 20.821333 20.821333 0 0 1-10.288762-17.798095zM282.087619 754.712381l8.996571-38.302476 38.302477-8.996572c1.511619-0.414476 2.511238-1.706667 2.511238-3.315809a3.388952 3.388952 0 0 0-2.511238-3.291429l-38.302477-8.996571-8.996571-38.302476a3.31581 3.31581 0 0 0-3.291429-2.511238 3.388952 3.388952 0 0 0-3.291428 2.511238l-8.996572 38.302476L228.205714 700.708571a3.31581 3.31581 0 0 0-2.511238 3.291429c0 1.511619 0.999619 2.901333 2.511238 3.291429l38.302476 8.996571L275.504762 754.590476a3.34019 3.34019 0 0 0 3.291428 2.608762 3.291429 3.291429 0 0 0 3.291429-2.486857zM134.607238 455.704381l5.900191-25.404952 25.404952-5.900191a2.364952 2.364952 0 0 0 1.80419-2.31619 2.364952 2.364952 0 0 0-1.80419-2.29181l-25.404952-5.90019-5.900191-25.404953a2.364952 2.364952 0 0 0-4.583619 0l-5.924571 25.429334-25.307429 5.90019a2.340571 2.340571 0 0 0-1.80419 2.29181c0 1.097143 0.804571 2.096762 1.80419 2.31619l25.404952 5.900191 5.900191 25.404952a2.389333 2.389333 0 0 0 2.31619 1.706667c0.877714-0.024381 1.77981-0.731429 2.194286-1.731048zM183.905524 13.604571H136.508952c-3.803429 0-6.41219 1.80419-6.41219 4.510477s2.511238 4.608 6.41219 4.608h47.396572c3.803429 0 6.38781-1.80419 6.387809-4.608 0-2.706286-3.193905-4.510476-6.387809-4.510477zM432.713143-29.598476H136.606476c-3.803429 0-6.38781 1.77981-6.387809 4.510476 0 2.681905 2.511238 4.583619 6.387809 4.583619h296.204191c3.900952 0 6.41219-1.77981 6.41219-4.583619-0.121905-2.730667-3.31581-4.510476-6.509714-4.510476zM883.492571 13.604571H213.504c-4.583619 0-7.801905 1.80419-7.801905 4.510477s3.096381 4.608 7.801905 4.608h669.988571c4.681143 0 7.777524-1.80419 7.777524-4.608-0.073143-2.706286-3.169524-4.510476-7.777524-4.510477zM298.666667 278.040381s122.904381-105.374476 277.211428-99.961905c148.821333 5.241905 159.256381-35.620571 159.256381-35.620571l-29.013333-45.104762-370.224762-8.752762-36.156952 35.059809L295.960381 262.095238l2.706286 15.945143zM346.282667 85.040762c-35.961905 0-57.417143 21.430857-57.417143 57.392762V491.52c0 20.48 7.046095 54.832762 54.150095 54.832762h38.497524c2.681905 0 4.583619 0 4.583619-6.558476 0-0.999619-0.121905-9.801143-4.583619-9.801143h-38.497524c-22.308571 0-37.839238-15.579429-37.839238-37.863619v-352.938667c0-22.674286 23.600762-37.863619 45.665524-37.863619h330.166857c22.28419 0 37.839238 15.530667 37.839238 37.863619V492.129524c0 22.28419-15.555048 37.863619-37.839238 37.863619h-30.646857c-4.778667 0-11.142095 5.583238-11.142095 9.801143 0 3.632762 6.095238 6.558476 11.142095 6.558476h30.646857c33.401905 0 54.174476-20.992 54.174476-54.759619v-349.110857c0-38.107429-19.334095-57.417143-57.417143-57.417143H346.282667zM397.165714 406.723048a8.752762 8.752762 0 0 0-8.533333 8.484571 8.777143 8.777143 0 0 0 8.533333 8.533333h230.326857c4.510476 0 8.484571-3.998476 8.484572-8.533333a8.704 8.704 0 0 0-8.484572-8.484571H397.165714zM397.165714 321.877333c-4.510476 0-8.533333 3.949714-8.533333 8.484572s4.022857 8.484571 8.533333 8.484571h229.668572c4.900571 0 8.752762-3.754667 9.167238-8.996571-0.024381-3.998476-3.998476-7.94819-8.508953-7.948191H397.165714zM397.165714 229.863619a8.752762 8.752762 0 0 0-8.533333 8.484571 8.777143 8.777143 0 0 0 8.533333 8.533334h229.668572c4.900571 0 8.752762-3.803429 9.167238-8.996572-0.024381-4.047238-3.998476-7.996952-8.508953-7.996952H397.165714zM459.166476 522.166857c-8.874667 0-16.335238 8.94781-16.335238 19.553524 0 10.654476 7.484952 19.651048 16.335238 19.651048h106.325334c8.850286 0 16.310857-8.996571 16.310857-19.651048 0-10.410667-7.265524-19.553524-15.60381-19.553524h-107.032381z"  horiz-adv-x="1024" />

    
    <glyph glyph-name="yunfei" unicode="&#58880;" d="M649.128368 212.467829h-129.825674v32.456418h129.825674a8.114105 8.114105 0 0 1 8.114104 8.114105V688.603487a8.114105 8.114105 0 0 1-8.114104 8.114104H210.966719a8.114105 8.114105 0 0 1-8.114104-8.114104v-22.394929h-32.456418v22.394929A40.570523 40.570523 0 0 0 210.966719 729.17401H649.128368a40.570523 40.570523 0 0 0 40.570523-40.570523v-435.565135A40.570523 40.570523 0 0 0 649.128368 212.467829zM211.291284 212.467829a40.570523 40.570523 0 0 0-40.895087 40.570523v32.456418a16.228209 16.228209 0 0 0 32.456418 0v-32.456418a8.114105 8.114105 0 0 1 8.114104-8.114105l97.369256 1.947385a16.552773 16.552773 0 0 0 16.552773-15.903645 16.228209 16.228209 0 0 0-15.903645-16.552773zM936.36767 212.467829v32.456418a21.421236 21.421236 0 0 1 21.096672 21.096672v185.650713l-27.263391 43.167037-46.088114 59.395245h-178.834866v-311.257052l53.877655 1.947385v-32.456418h-55.82504a30.509033 30.509033 0 0 0-30.509033 30.509033V586.690333h227.194929l56.798732-73.026942 32.456418-52.579397v-194.738511a53.877655 53.877655 0 0 0-52.903962-53.877654zM413.819334 295.55626a73.026941 73.026941 0 1 0-73.026941-73.026941 73.026941 73.026941 0 0 0 73.026941 73.026941m0 32.456418A105.48336 105.48336 0 1 1 519.302694 222.529319a105.48336 105.48336 0 0 1-105.48336 105.483359zM835.752773 295.55626a73.026941 73.026941 0 1 0-73.026941-73.026941 73.026941 73.026941 0 0 0 73.026941 73.026941m0 32.456418A105.48336 105.48336 0 1 1 941.236133 222.529319a105.48336 105.48336 0 0 1-105.48336 105.483359zM925.007924 474.066561h-162.282092a16.228209 16.228209 0 0 0 0 32.456418h162.282092a16.228209 16.228209 0 0 0 0-32.456418zM210.966719 636.348653h-97.369255a16.228209 16.228209 0 0 0 0 32.456418h97.369255a16.228209 16.228209 0 0 0 0-32.456418zM275.879556 571.435816h-162.282092a16.228209 16.228209 0 0 0 0 32.456419h162.282092a16.228209 16.228209 0 0 0 0-32.456419zM373.248811 474.066561H16.228209a16.228209 16.228209 0 0 0 0 32.456418h357.020602a16.228209 16.228209 0 0 0 0-32.456418zM210.966719 376.697306h-129.825673a16.228209 16.228209 0 0 0 0 32.456418h129.825673a16.228209 16.228209 0 0 0 0-32.456418z"  horiz-adv-x="1024" />

    
    <glyph glyph-name="pinglun" unicode="&#58985;" d="M917.333333 853.333333h-810.666666c-46.933333 0-85.333333-38.4-85.333334-83.2v-588.8c0-46.933333 38.4-83.2 85.333334-83.2h64v-187.733333l251.733333 187.733333h494.933333c46.933333 0 85.333333 38.4 85.333334 83.2V768c-2.133333 46.933333-38.4 85.333333-85.333334 85.333333z m23.466667-674.133333c0-12.8-10.666667-25.6-25.6-25.6h-514.133333l-170.666667-128v128h-123.733333c-12.8 0-25.6 10.666667-25.6 25.6V768c0 12.8 10.666667 25.6 25.6 25.6h808.533333c12.8 0 25.6-10.666667 25.6-25.6v-588.8zM211.2 475.733333c0-36.266667 27.733333-64 61.866667-64 34.133333 0 61.866667 27.733333 61.866666 64s-27.733333 64-61.866666 64c-34.133333 0-61.866667-29.866667-61.866667-64zM450.133333 475.733333c0-36.266667 27.733333-64 61.866667-64s61.866667 27.733333 61.866667 64-27.733333 64-61.866667 64c-34.133333 0-61.866667-29.866667-61.866667-64zM686.933333 475.733333c0-36.266667 27.733333-64 61.866667-64 34.133333 0 61.866667 27.733333 61.866667 64s-27.733333 64-61.866667 64c-34.133333 0-61.866667-29.866667-61.866667-64z"  horiz-adv-x="1024" />

    
    <glyph glyph-name="dingdan" unicode="&#59000;" d="M727.2 522H292.6c-13.5 0-24.5 11-24.5 24.5v1.1c0 13.5 11 24.5 24.5 24.5h434.5c13.5 0 24.5-11 24.5-24.5v-1.1c0-13.5-11-24.5-24.4-24.5zM654.6 797.8H368.1c-11.1 0-20.1 9.1-20.1 20.1v9.8c0 11.1 9.1 20.1 20.1 20.1h286.5c11.1 0 20.1-9.1 20.1-20.1V818c0-11.1-9-20.2-20.1-20.2zM727.2 349H292.6c-13.5 0-24.5 11-24.5 24.5v1.1c0 13.5 11 24.5 24.5 24.5h434.5c13.5 0 24.5-11 24.5-24.5v-1.1c0-13.5-11-24.5-24.4-24.5zM727.2 181.6H292.6c-13.5 0-24.5 11-24.5 24.5v1.1c0 13.5 11 24.5 24.5 24.5h434.5c13.5 0 24.5-11 24.5-24.5v-1.1c0-13.5-11-24.5-24.4-24.5zM822.7-79.6H199.6c-62.3 0-113 50.7-113 113V734c0 62.3 50.7 113 113 113h95.3l42.3-87v-0.8h350.2v0.8l42.3 87h92.9c62.3 0 113-50.7 113-113v-700.6c0.1-62.3-50.6-113-112.9-113zM199.6 797c-34.7 0-63-28.3-63-63v-700.6c0-34.7 28.3-63 63-63h623.1c34.7 0 63 28.3 63 63V734c0 34.7-28.3 63-63 63H761l-24.1-49.6c-3.3-21.6-22-38.2-44.5-38.2H332.2c-22.5 0-41.2 16.6-44.5 38.2L263.6 797h-64z"  horiz-adv-x="1024" />

    
    <glyph glyph-name="shangpinguanli" unicode="&#58922;" d="M112.3 567.1l384.8-175.5c6.3-2.9 13.5-2.9 19.8-0.1L912.4 567c19 8.4 19.2 35.3 0.4 44L517.3 794.3c-6.5 3-14.1 3-20.5-0.1L111.9 610.9c-18.5-8.9-18.3-35.3 0.4-43.8zM498.9 118L231.5 239.9c-6 2.7-12.9 2.8-18.9 0l-100.8-45.4c-18-8.1-18-33.8 0-41.9l387.1-173.5c5.9-2.6 12.7-2.7 18.6-0.1l399.1 175c17.8 7.8 18.5 32.7 1.1 41.5L825.9 242c-6.1 3.1-13.2 3.3-19.5 0.6l-289-124.8c-5.9-2.6-12.6-2.5-18.5 0.2zM499 320.1L231.7 442c-6 2.8-13 2.8-19 0l-100.5-45.3c-18.1-8.2-18.1-33.9 0-42L499 181.3c5.9-2.7 12.7-2.7 18.7-0.1l398.9 174.9c17.8 7.8 18.5 32.9 1.2 41.7l-91.5 46.3c-6.1 3.1-13.3 3.3-19.5 0.6L517.7 319.9c-6-2.6-12.7-2.5-18.7 0.2z"  horiz-adv-x="1024" />

    
    <glyph glyph-name="fenlei" unicode="&#58885;" d="M163.4 649.1c0-27.5-22.2-49.8-49.7-49.8-27.5 0-49.8 22.3-49.8 49.8 0 27.4 22.2 49.7 49.8 49.7 27.4 0 49.7-22.2 49.7-49.7z m0 0M163.4 383.8c0-27.5-22.2-49.8-49.7-49.8-27.5 0-49.8 22.3-49.8 49.8 0 27.4 22.2 49.7 49.8 49.7 27.4 0 49.7-22.3 49.7-49.7z m0 0M163.4 118.5c0-27.5-22.2-49.8-49.7-49.8-27.5 0-49.8 22.3-49.8 49.8 0 27.4 22.2 49.7 49.8 49.7 27.4 0 49.7-22.3 49.7-49.7z m0 0M262.9 682.3h663.3V616H262.9zM296 649.1c0-18.3-14.8-33.2-33.2-33.2-18.3 0-33.2 14.9-33.2 33.2 0 18.3 14.8 33.2 33.2 33.2 18.4 0 33.2-14.9 33.2-33.2z m0 0M959.3 649.1c0-18.3-14.8-33.2-33.2-33.2-18.3 0-33.2 14.9-33.2 33.2 0 18.3 14.8 33.2 33.2 33.2 18.4 0 33.2-14.9 33.2-33.2z m0 0M262.9 416.9h663.3v-66.3H262.9zM296 383.8c0-18.3-14.8-33.2-33.2-33.2-18.3 0-33.2 14.9-33.2 33.2 0 18.3 14.8 33.2 33.2 33.2 18.4-0.1 33.2-15 33.2-33.2z m0 0M959.3 383.8c0-18.3-14.8-33.2-33.2-33.2-18.3 0-33.2 14.9-33.2 33.2 0 18.3 14.8 33.2 33.2 33.2 18.4-0.1 33.2-15 33.2-33.2z m0 0M262.9 151.6h663.3v-66.3H262.9zM296 118.4c0-18.3-14.8-33.2-33.2-33.2-18.3 0-33.2 14.9-33.2 33.2 0 18.3 14.8 33.2 33.2 33.2 18.4 0 33.2-14.9 33.2-33.2z m0 0M959.3 118.4c0-18.3-14.8-33.2-33.2-33.2-18.3 0-33.2 14.9-33.2 33.2 0 18.3 14.8 33.2 33.2 33.2 18.4 0 33.2-14.9 33.2-33.2z m0 0"  horiz-adv-x="1024" />

    
    <glyph glyph-name="weibiaoti--1" unicode="&#58897;" d="M513.706667-113.12761899999998a474.940952 474.940952 0 0 0-85.820953 7.801905 27.306667 27.306667 0 1 0 9.752381 53.638095 417.889524 417.889524 0 0 1 288.182857 50.95619A432.761905 432.761905 0 0 1 783.11619 710.704762a27.306667 27.306667 0 1 0 34.377143 42.422857 487.619048 487.619048 0 0 0-64.121904-800.914286 472.746667 472.746667 0 0 0-239.664762-65.340952zM195.047619 15.360000000000014a27.306667 27.306667 0 0 0-18.529524 7.314286 409.112381 409.112381 0 0 0-84.601905 108.982857 487.619048 487.619048 0 0 0 178.712381 665.6 485.668571 485.668571 0 0 0 268.190477 64.121905 27.306667 27.306667 0 1 0-2.438096-54.613334A433.005714 433.005714 0 0 1 83.870476 320.853333a427.398095 427.398095 0 0 1 54.857143-162.377143 355.474286 355.474286 0 0 1 73.142857-95.085714A27.306667 27.306667 0 0 0 195.047619 15.360000000000014zM487.619048 468.601905l-93.866667 100.205714a32.426667 32.426667 0 1 0 48.761905 43.885714L536.380952 512.487619a32.914286 32.914286 0 0 0-2.194285-45.83619 34.864762 34.864762 0 0 0-46.567619 1.950476zM491.032381 512.487619l100.205714 93.866667a32.914286 32.914286 0 0 0 45.836191-2.194286 32.426667 32.426667 0 0 0-2.194286-43.885714l-100.205714-93.866667a31.695238 31.695238 0 1 0-43.885715 45.836191zM666.575238 399.847619H359.619048a28.525714 28.525714 0 0 0-29.257143 29.257143v6.095238a28.525714 28.525714 0 0 0 29.257143 29.257143h306.95619a28.525714 28.525714 0 0 0 29.257143-29.257143v-6.339048a28.525714 28.525714 0 0 0-29.257143-29.257142zM482.742857 174.08000000000004V405.942857a28.525714 28.525714 0 0 0 29.257143 29.257143h6.339048a28.525714 28.525714 0 0 0 29.257142-29.257143v-233.813333a28.525714 28.525714 0 0 0-29.257142-29.257143h-8.533334a31.695238 31.695238 0 0 0-27.062857 31.207619zM666.575238 253.56190500000002H359.619048a28.525714 28.525714 0 0 0-29.257143 29.257143v6.095238a28.525714 28.525714 0 0 0 29.257143 29.257143h306.95619a28.525714 28.525714 0 0 0 29.257143-29.257143v-6.339048a28.525714 28.525714 0 0 0-29.257143-29.257143z"  horiz-adv-x="1024" />

    


  </font>
</defs>
</svg>
